<svg height="512" viewBox="0 0 42 59" width="512" xmlns="http://www.w3.org/2000/svg"><g id="Page-1" fill="none" fill-rule="evenodd"><g id="015---Book" fill-rule="nonzero"><path id="Shape" d="m42 11v46c0 1.1045695-.8954305 2-2 2h-35c-2.76142375 0-5-2.2385763-5-5v-48z" fill="#f0c419"/><path id="Shape" d="m34 11h8c-.6837409-1.57701699-1.0246005-3.28131472-1-5-.0246005-1.71868528.3162591-3.42298301 1-5h-37c-2.76142375 0-5 2.23857625-5 5s2.23857625 5 5 5z" fill="#f9eab0"/><path id="Shape" d="m41 12h-35c-3.3137085 0-6-2.6862915-6-6s2.6862915-6 6-6h35c.5522847 0 1 .44771525 1 1s-.4477153 1-1 1h-35c-2.209139 0-4 1.790861-4 4s1.790861 4 4 4h35c.5522847 0 1 .4477153 1 1s-.4477153 1-1 1z" fill="#f29c1f"/><path id="Shape" d="m34 34-8-5.091-8 5.091v-28h16z" fill="#e64c3c"/><path id="Shape" d="m5 56c-.55228475 0-1-.4477153-1-1v-40c0-.5522847.44771525-1 1-1s1 .4477153 1 1v40c0 .5522847-.44771525 1-1 1z" fill="#f29c1f"/><path id="Shape" d="m29 56h-11c-.5522847 0-1-.4477153-1-1s.4477153-1 1-1h11c.5522847 0 1 .4477153 1 1s-.4477153 1-1 1z" fill="#547580"/><rect id="Rectangle-path" fill="#ecf0f1" height="5" rx=".5" width="15" x="16" y="46"/><path id="Shape" d="m37 7h-32c-.55228475 0-1-.44771525-1-1s.44771525-1 1-1h32c.5522847 0 1 .44771525 1 1s-.4477153 1-1 1z" fill="#fac176"/></g></g></svg>