<svg height="512" viewBox="0 0 58 54" width="512" xmlns="http://www.w3.org/2000/svg"><g id="Page-1" fill="none" fill-rule="evenodd"><g id="055---Refresh-Page" fill-rule="nonzero"><rect id="Rectangle-path" fill="#ecf0f1" height="46" rx="4" width="58"/><path id="Shape" d="m58 4v4h-58v-4c0-2.209139 1.790861-4 4-4h50c2.209139 0 4 1.790861 4 4z" fill="#3b97d3"/><path id="Shape" d="m32 3h-6c-.5522847 0-1 .44771525-1 1s.4477153 1 1 1h6c.5522847 0 1-.44771525 1-1s-.4477153-1-1-1z" fill="#2980ba"/><path id="Shape" d="m54 3h-11c-.5522847 0-1 .44771525-1 1s.4477153 1 1 1h11c.5522847 0 1-.44771525 1-1s-.4477153-1-1-1z" fill="#2980ba"/><circle id="Oval" cx="4" cy="4" fill="#ff5364" r="1"/><circle id="Oval" cx="8" cy="4" fill="#f0c419" r="1"/><circle id="Oval" cx="12" cy="4" fill="#65ddb9" r="1"/><path id="Shape" d="m49.96 39h-2.39c-1.5785442 7.3243351-7.3141048 13.0370621-14.6446784 14.5863772-7.3305737 1.5493151-14.8871582-1.35412-19.2943216-7.4133772-.5364473-.7394543-.5064535-1.7477408.073-2.454.4006253-.4802816 1.001905-.7468239 1.6268147-.7211534s1.202302.3406311 1.5621853.8521534c3.3942243 4.6442244 9.1454176 6.9383118 14.8042482 5.9052509s10.2284554-5.211289 11.7627518-10.7552509h-1.42c-.4144761-.0185738-.7826239-.2704236-.9501432-.6499927-.1675193-.379569-.1054693-.8212827.1601432-1.1400073l2.7-3.29v-.01l1.261-1.532c.1941298-.236164.483788-.373021.7895-.373021s.5953702.136857.7895.373021l3.96 4.83c.2668228.3186826.329599.7612057.1619362 1.1415243s-.5366902.6324819-.9519362.6504757z" fill="#955ba5"/><path id="Shape" d="m44.671 26.827-.005.006c-.4070633.4886203-1.0222464.7545194-1.6570565.7162256-.6348101-.0382939-1.2135688-.3762157-1.5589435-.9102256-3.3708608-5.020281-9.4265437-7.5255825-15.3589736-6.3541734s-10.581355 5.7904271-11.7910264 11.7151734h1.66c.4144761.0185738.7826239.2704236.9501432.6499927.1675193.379569.1054693.8212827-.1601432 1.1400073l-3.96 4.83c-.1941227.2365268-.4840122.3736297-.79.3736297s-.5958773-.1371029-.79-.3736297l-3.96-4.83c-.26561252-.3187246-.32766249-.7604383-.16014318-1.1400073.16751931-.3795691.53566711-.6314189.95014318-.6499927h2.2c1.2305822-7.7162349 7.0620013-13.8910663 14.6952822-15.5606877s15.5100961 1.506819 19.8497178 8.0046877c.4917877.7325239.4454681 1.700767-.114 2.383z" fill="#955ba5"/><g fill="#35495e"><path id="Shape" d="m6 14h-2c-.55228475 0-1-.4477153-1-1s.44771525-1 1-1h2c.55228475 0 1 .4477153 1 1s-.44771525 1-1 1z"/><path id="Shape" d="m19 14h-9c-.55228475 0-1-.4477153-1-1s.44771525-1 1-1h9c.5522847 0 1 .4477153 1 1s-.4477153 1-1 1z"/><path id="Shape" d="m12 18h-8c-.55228475 0-1-.4477153-1-1s.44771525-1 1-1h8c.5522847 0 1 .4477153 1 1s-.4477153 1-1 1z"/><path id="Shape" d="m54 14h-2c-.5522847 0-1-.4477153-1-1s.4477153-1 1-1h2c.5522847 0 1 .4477153 1 1s-.4477153 1-1 1z"/><path id="Shape" d="m48 14h-9c-.5522847 0-1-.4477153-1-1s.4477153-1 1-1h9c.5522847 0 1 .4477153 1 1s-.4477153 1-1 1z"/><path id="Shape" d="m54 18h-8c-.5522847 0-1-.4477153-1-1s.4477153-1 1-1h8c.5522847 0 1 .4477153 1 1s-.4477153 1-1 1z"/></g></g></g></svg>