<svg height="478pt" viewBox="-59 0 478 478" width="478pt" xmlns="http://www.w3.org/2000/svg"><path d="m350 84v344c.007812 22.09375-17.90625 40.007812-40 40h-260c-22.09375.007812-40.007812-17.90625-40-40v-344c-.007812-22.09375 17.90625-40.007812 40-40h100v26h60v-26h100c22.09375-.007812 40.007812 17.90625 40 40zm-239.398438 238.601562h138.796876c0-41.601562-31.097657-72.203124-69.398438-72.203124s-69.398438 30.601562-69.398438 72.203124zm111-153c-.058593-22.964843-18.707031-41.539062-41.667968-41.5-22.960938.035157-41.550782 18.667969-41.535156 41.632813.019531 22.960937 18.640624 41.566406 41.601562 41.566406 11.054688.007813 21.652344-4.386719 29.460938-12.210937 7.804687-7.824219 12.175781-18.4375 12.140624-29.488282zm0 0" fill="#e48e66"/><path d="m180 70h-30v-26h-100c-22.09375-.007812-40.007812 17.90625-40 40v344c-.007812 22.09375 17.90625 40.007812 40 40h130zm0 0" fill="#d18162"/><path d="m249.398438 322.601562h-138.796876c0-41.601562 31.097657-72.203124 69.398438-72.203124s69.398438 30.601562 69.398438 72.203124zm0 0" fill="#f8ec7d"/><path d="m180 128c23.015625-.027344 41.691406 18.617188 41.699219 41.632812.011719 23.015626-18.648438 41.675782-41.664063 41.667969-23.015625-.011719-41.664062-18.683593-41.636718-41.699219-.007813-11.039062 4.375-21.625 12.175781-29.425781 7.804687-7.804687 18.390625-12.183593 29.425781-12.175781zm0 0" fill="#f8ec7d"/><g fill="#63316d"><path d="m180 221.300781c28.566406.054688 51.761719-23.066406 51.800781-51.632812.035157-28.566407-23.101562-51.75-51.667969-51.769531-28.566406-.015626-51.734374 23.136718-51.734374 51.703124-.007813 28.515626 23.082031 51.652344 51.601562 51.699219zm0-83.300781c12.832031-.039062 24.421875 7.65625 29.359375 19.5 4.9375 11.839844 2.25 25.492188-6.808594 34.578125-9.058593 9.089844-22.699219 11.820313-34.558593 6.917969-11.859376-4.898438-19.59375-16.464844-19.59375-29.296875-.019532-8.394531 3.300781-16.453125 9.230468-22.402344 5.925782-5.945313 13.976563-9.289063 22.371094-9.296875zm0 0"/><path d="m110.601562 332.601562h138.796876c5.519531-.015624 9.984374-4.484374 10-10 0-22.601562-8.199219-43.402343-23.199219-58.703124-14.835938-15.035157-35.078125-23.5-56.199219-23.5s-41.363281 8.464843-56.199219 23.5c-15 15.300781-23.199219 36.101562-23.199219 58.703124.015626 5.515626 4.480469 9.984376 10 10zm27.5-54.703124c11.066407-11.195313 26.15625-17.5 41.898438-17.5s30.832031 6.304687 41.898438 17.5c9.175781 9.46875 15.066406 21.632812 16.800781 34.703124h-117.398438c1.710938-13.078124 7.605469-25.25 16.800781-34.703124zm0 0"/><path d="m310 34h-90v-24c-.015625-5.515625-4.484375-9.984375-10-10h-60c-5.515625.015625-9.984375 4.484375-10 10v24h-90c-27.609375.011719-49.9882812 22.390625-50 50v344c.0117188 27.609375 22.390625 49.988281 50 50h260c27.609375-.011719 49.988281-22.390625 50-50v-344c-.011719-27.609375-22.390625-49.988281-50-50zm-150-14h40v40h-40zm180 408c-.046875 16.546875-13.453125 29.953125-30 30h-260c-16.546875-.046875-29.953125-13.453125-30-30v-344c.046875-16.546875 13.453125-29.953125 30-30h90v16c.015625 5.515625 4.484375 9.984375 10 10h60c5.515625-.015625 9.984375-4.484375 10-10v-16h90c16.546875.046875 29.953125 13.453125 30 30zm0 0"/><path d="m288.199219 404h-216.398438c-5.523437 0-10 4.476562-10 10s4.476563 10 10 10h216.5c5.523438-.027344 9.976563-4.527344 9.949219-10.050781-.027344-5.523438-4.527344-9.976563-10.050781-9.949219zm0 0"/><path d="m121.800781 360c-5.523437 0-10 4.476562-10 10s4.476563 10 10 10h116.5c5.523438 0 10-4.476562 10-10s-4.476562-10-10-10zm0 0"/></g></svg>