<svg id="Capa_1" enable-background="new 0 0 512 512" height="512" viewBox="0 0 512 512" width="512" xmlns="http://www.w3.org/2000/svg"><g><g><path d="m422 110h80v292h-80z" fill="#ffda8f"/><path d="m322 10h-252v492h252c22.09 0 40-17.91 40-40v-412c0-22.09-17.91-40-40-40z" fill="#b3f1ff"/><path d="m502 442v20c0 22.09-17.91 40-40 40s-40-17.91-40-40v-20z" fill="#ff9256"/><path d="m502 402v40h-80v-40z" fill="#eefaff"/><path d="m486 70 16 40c0 11.05-8.95 20-20 20s-20-8.95-20-20c0 11.05-8.95 20-20 20s-20-8.95-20-20l16-40z" fill="#fce8d0"/><path d="m462 10 24 60h-48z" fill="#918787"/><path d="m382 256v40c0 11.05-8.95 20-20 20h-60l-40-40 40-40h60c11.05 0 20 8.95 20 20z" fill="#ff9256"/><path d="m136 70h160v80h-160z" fill="#eefaff"/><path d="m10 10h60v492h-60z" fill="#918787"/></g><g><circle cx="322" cy="276" r="10"/><circle cx="256" cy="436" r="10"/><circle cx="216" cy="436" r="10"/><circle cx="176" cy="436" r="10"/><path d="m462 512c27.57 0 50-22.43 50-50v-352c0-2.064-.75-3.775-.781-3.88-.002-.006-.004-.011-.007-.017-3.563-8.909-37.843-94.607-39.927-99.816-1.519-3.797-5.196-6.287-9.285-6.287s-7.766 2.49-9.285 6.286c-2.098 5.245-39.931 99.828-39.933 99.833-.034.113-.781 1.661-.781 3.88v352c-.001 27.571 22.429 50.001 49.999 50.001zm30-120h-20v-253.713c3.129 1.109 6.495 1.713 10 1.713 3.506 0 6.87-.61 10-1.72zm-30-355.074 9.23 23.074h-18.46zm-17.23 43.074h34.459l12.633 31.582c-.762 4.763-4.888 8.418-9.862 8.418-5.514 0-10-4.486-10-10 0-5.523-4.478-10-10-10s-10 4.477-10 10c0 5.514-4.486 10-10 10-4.974 0-9.1-3.655-9.862-8.418zm-12.77 58.28c3.13 1.11 6.494 1.72 10 1.72s6.87-.61 10-1.72v253.72h-20zm0 273.72h60v20h-60zm0 40h60v10c0 16.542-13.458 30-30 30s-30-13.458-30-30z"/><path d="m10 512h312c27.57 0 50-22.43 50-50v-137.72c11.639-4.128 20-15.243 20-28.28v-40c0-13.036-8.361-24.152-20-28.28v-177.72c0-27.57-22.43-50-50-50h-312c-5.523 0-10 4.477-10 10v492c0 5.523 4.477 10 10 10zm352-266c5.514 0 10 4.486 10 10v40c0 5.514-4.486 10-10 10h-55.857l-30-30 30-30zm-342-226h40v191c0 5.523 4.477 10 10 10s10-4.477 10-10v-191h242c16.542 0 30 13.458 30 30v176h-50c-2.652 0-5.195 1.054-7.071 2.929l-40 40c-3.905 3.905-3.905 10.237 0 14.143l40 40c1.876 1.875 4.419 2.929 7.071 2.929h50v136c0 16.542-13.458 30-30 30h-242v-191.001c0-5.523-4.477-10-10-10s-10 4.477-10 10v191h-40z"/><path d="m136 160h160c5.522 0 10-4.477 10-10v-80c0-5.523-4.478-10-10-10h-160c-5.523 0-10 4.477-10 10v80c0 5.523 4.477 10 10 10zm10-80h140v60h-140z"/><path d="m136 406h160c5.522 0 10-4.477 10-10s-4.478-10-10-10h-160c-5.523 0-10 4.477-10 10s4.477 10 10 10z"/><path d="m136 366h160c5.522 0 10-4.477 10-10s-4.478-10-10-10h-160c-5.523 0-10 4.477-10 10s4.477 10 10 10z"/><circle cx="70" cy="256" r="10"/></g></g></svg>