<?xml version="1.0" encoding="iso-8859-1"?>
<!-- Generator: Adobe Illustrator 19.0.0, SVG Export Plug-In . SVG Version: 6.00 Build 0)  -->
<svg version="1.1" id="Capa_1" xmlns="http://www.w3.org/2000/svg" xmlns:xlink="http://www.w3.org/1999/xlink" x="0px" y="0px"
	 viewBox="0 0 512 512" style="enable-background:new 0 0 512 512;" xml:space="preserve">
<path style="fill:#60C28E;" d="M334.922,504.5H177.078c-17.892,0-32.954-13.387-35.053-31.155l-28.916-244.74h285.78l-28.916,244.74
	C367.876,491.113,352.814,504.5,334.922,504.5z"/>
<path style="fill:#59B382;" d="M359.59,494.447c-116.716-9.926-153.916-134.603-166.657-215.129
	c-1.592-10.063,6.193-19.158,16.381-19.158h185.849l3.728-31.554H113.11l28.916,244.74c2.099,17.768,17.161,31.155,35.053,31.155
	h157.844C344.462,504.5,353.195,500.693,359.59,494.447z"/>
<path style="fill:#80D3AE;" d="M413.532,156.973H98.468c-11.837,0-21.432,9.596-21.432,21.432v28.768
	c0,11.837,9.595,21.432,21.432,21.432h315.064c11.837,0,21.432-9.596,21.432-21.432v-28.768
	C434.965,166.568,425.369,156.973,413.532,156.973z"/>
<path style="fill:#60C28E;" d="M305.174,7.5h-98.348c-41.715,0-77.533,29.667-85.301,70.652l-14.94,78.821h298.831l-14.94-78.821
	C382.707,37.167,346.889,7.5,305.174,7.5z"/>
<path style="fill:#59B382;" d="M188.902,9.379c-33.702,7.098-60.749,33.808-67.377,68.773l-14.94,78.821h154.576
	C209.462,126.058,184.784,59.364,188.902,9.379z"/>
<path style="fill:#80D3AE;" d="M197.303,125.469h117.394c12.935,0,24.071-9.133,26.602-21.819l15.748-78.935
	C342.472,13.849,324.457,7.5,305.174,7.5h-98.348c-19.283,0-37.298,6.349-51.872,17.215l15.748,78.935
	C173.232,116.336,184.368,125.469,197.303,125.469z"/>
<path style="fill:#60C28E;" d="M225.487,125.469c-27.176-33.921-39.603-79.492-36.584-116.1
	c-12.457,2.627-24.005,7.933-33.949,15.346l15.748,78.935c2.531,12.685,13.666,21.819,26.602,21.819H225.487z"/>
<g>
	<ellipse style="fill:#FFFFFF;" cx="201.5" cy="75.35" rx="20.11" ry="16.02"/>
	<ellipse style="fill:#FFFFFF;" cx="310.5" cy="75.35" rx="20.11" ry="16.02"/>
</g>
<path style="fill:#C7C9CC;" d="M137.169,432.236l4.857,41.109c2.099,17.768,17.161,31.155,35.053,31.155h157.844
	c17.892,0,32.954-13.387,35.053-31.155l4.857-41.109H137.169z"/>
<path style="fill:#B2B5B8;" d="M359.59,494.447c-49.395-4.201-84.549-28.948-109.632-62.211H137.169l4.857,41.109
	c2.099,17.768,17.161,31.155,35.053,31.155h157.844C344.462,504.5,353.195,500.693,359.59,494.447z"/>
<g>
	<path style="fill:#FFFFFF;" d="M238.935,377.763h-26.033c-6.828,0-12.943-3.53-16.357-9.443c-3.414-5.914-3.414-12.974,0-18.887
		l21.549-37.324c2.071-3.588,6.658-4.815,10.245-2.745c3.587,2.071,4.816,6.658,2.745,10.245l-21.549,37.324
		c-1.013,1.754-0.337,3.302,0,3.887c0.337,0.584,1.341,1.943,3.367,1.943h26.033c4.142,0,7.5,3.357,7.5,7.5
		S243.077,377.763,238.935,377.763z"/>
	<path style="fill:#FFFFFF;" d="M299.098,377.763H256c-4.142,0-7.5-3.357-7.5-7.5s3.358-7.5,7.5-7.5h43.098
		c2.025,0,3.028-1.359,3.366-1.943c0.337-0.585,1.013-2.133,0-3.887l-14.348-24.852c-2.071-3.588-0.842-8.175,2.745-10.245
		c3.589-2.069,8.175-0.843,10.245,2.745l14.348,24.852c3.414,5.913,3.414,12.974,0,18.887
		C312.04,374.232,305.926,377.763,299.098,377.763z"/>
	<path style="fill:#FFFFFF;" d="M287.417,323.359c-2.592,0-5.112-1.345-6.502-3.751l-21.549-37.323
		c-1.013-1.755-2.691-1.943-3.366-1.943l0,0c-0.675,0-2.354,0.19-3.367,1.943l-14.348,24.853c-2.072,3.588-6.659,4.814-10.245,2.745
		c-3.587-2.071-4.816-6.658-2.745-10.245l14.348-24.853c3.414-5.913,9.529-9.443,16.357-9.443l0,0c6.828,0,12.942,3.53,16.356,9.443
		l21.549,37.323c2.071,3.587,0.842,8.174-2.745,10.245C289.98,323.035,288.69,323.359,287.417,323.359z"/>
	<path style="fill:#FFFFFF;" d="M273.29,392.66c-1.562,0-3.136-0.485-4.482-1.491l-15.711-11.735
		c-2.878-2.149-4.597-5.577-4.597-9.17c0-3.594,1.719-7.022,4.598-9.172l15.71-11.734c3.319-2.478,8.02-1.798,10.497,1.521
		c2.479,3.318,1.798,8.019-1.521,10.497l-11.899,8.889l11.899,8.888c3.318,2.479,3.999,7.179,1.521,10.497
		C277.832,391.62,275.575,392.66,273.29,392.66z"/>
	<path style="fill:#FFFFFF;" d="M285.449,323.898c-1.528,0-3.064-0.311-4.526-0.938l-18.021-7.74
		c-3.806-1.635-5.566-6.046-3.932-9.852c1.635-3.806,6.045-5.565,9.852-3.932l13.647,5.862l1.747-14.75
		c0.487-4.114,4.221-7.054,8.331-6.565c4.113,0.487,7.053,4.218,6.565,8.331l-2.308,19.474c-0.43,3.62-2.486,6.742-5.643,8.564
		C289.384,323.38,287.422,323.898,285.449,323.898z"/>
	<path style="fill:#FFFFFF;" d="M228.834,345.786c-3.748,0-6.987-2.805-7.438-6.618l-1.748-14.749L206,330.28
		c-3.805,1.635-8.216-0.126-9.851-3.932c-1.634-3.807,0.126-8.217,3.932-9.852l18.019-7.738c3.3-1.417,7.129-1.19,10.24,0.605
		c3.111,1.797,5.221,4.999,5.643,8.566l2.308,19.473c0.488,4.113-2.452,7.844-6.565,8.331
		C229.426,345.769,229.128,345.786,228.834,345.786z"/>
	<path style="fill:#FFFFFF;" d="M299.098,377.763H256c-4.142,0-7.5-3.357-7.5-7.5s3.358-7.5,7.5-7.5h43.098
		c2.025,0,3.028-1.359,3.366-1.943c0.337-0.585,1.013-2.133,0-3.887l-13.016-22.545c-2.071-3.587-0.842-8.174,2.745-10.245
		c3.586-2.07,8.175-0.843,10.245,2.745l13.016,22.545c3.414,5.913,3.414,12.974,0,18.887
		C312.04,374.232,305.926,377.763,299.098,377.763z"/>
</g>
<path d="M256,72.326c6.491,0,12.663-2.811,16.934-7.71c2.722-3.123,2.396-7.86-0.727-10.582c-3.125-2.722-7.86-2.396-10.582,0.727
	c-1.421,1.631-3.471,2.565-5.625,2.565c-2.154,0-4.204-0.936-5.626-2.565c-2.721-3.122-7.459-3.448-10.582-0.726
	c-3.122,2.722-3.447,7.459-0.726,10.581C243.338,69.517,249.51,72.326,256,72.326z M413.532,149.473h-1.905l-13.783-72.718
	c-4.501-23.742-17.709-44.004-35.929-57.74c-0.284-0.244-0.591-0.463-0.912-0.663C345.253,6.768,325.878,0,305.174,0h-98.348
	C186.124,0,166.75,6.768,151,18.35c-0.324,0.201-0.632,0.422-0.918,0.667c-18.218,13.736-31.425,33.997-35.925,57.738
	l-13.784,72.718h-1.905c-15.953,0-28.932,12.979-28.932,28.933v28.768c0,15.953,12.979,28.932,28.932,28.932h7.976l28.133,238.12
	C137.121,495.76,155.393,512,177.078,512h157.844c10.861,0,21.222-4.078,29.171-11.482c3.031-2.823,3.2-7.569,0.377-10.6
	c-2.823-3.032-7.568-3.2-10.6-0.377c-5.165,4.81-11.893,7.459-18.948,7.459H323.35l2.275-33.042
	c0.284-4.133-2.835-7.713-6.967-7.998c-4.121-0.27-7.714,2.834-7.998,6.967L308.314,497H263.5v-33.558c0-4.143-3.357-7.5-7.5-7.5
	c-4.142,0-7.5,3.357-7.5,7.5V497h-44.814l-2.347-34.073c-0.285-4.133-3.875-7.259-7.997-6.967c-4.132,0.285-7.252,3.865-6.967,7.998
	L188.651,497h-11.572c-14.085,0-25.952-10.548-27.605-24.535l-3.867-32.729h220.787l-2.838,24.018
	c-0.486,4.113,2.455,7.842,6.568,8.328c0.299,0.035,0.596,0.053,0.89,0.053c3.748,0,6.987-2.807,7.438-6.621l27.104-229.409h7.976
	c15.953,0,28.932-12.979,28.932-28.932v-28.768C442.464,162.452,429.486,149.473,413.532,149.473z M206.826,15h98.348
	c15.951,0,30.963,4.78,43.555,13.07l-14.785,74.113c-1.825,9.147-9.919,15.787-19.246,15.787H197.303
	c-9.328,0-17.422-6.64-19.247-15.786L163.271,28.07C175.864,19.78,190.875,15,206.826,15z M368.166,424.735H143.835l-22.286-188.631
	h268.904L368.166,424.735z M427.464,207.173c0,7.682-6.25,13.932-13.932,13.932H98.468c-7.682,0-13.932-6.25-13.932-13.932v-28.768
	c0-7.683,6.25-13.933,13.932-13.933h8.104c0.007,0,0.014,0.001,0.021,0.001s0.015-0.001,0.022-0.001h37.521
	c4.142,0,7.5-3.357,7.5-7.5s-3.358-7.5-7.5-7.5H115.64l13.254-69.925c2.998-15.815,10.6-29.783,21.241-40.654l13.211,66.225
	c3.22,16.138,17.501,27.851,33.957,27.851h117.394c16.455,0,30.736-11.713,33.957-27.852l13.211-66.224
	c10.641,10.871,18.243,24.839,21.241,40.654l13.253,69.925H179.481c-4.142,0-7.5,3.357-7.5,7.5s3.358,7.5,7.5,7.5h234.052
	c7.682,0,13.932,6.25,13.932,13.933v28.768H427.464z M298.782,66.873c4.143,0,7.5-3.357,7.5-7.5v-7.102c0-4.143-3.357-7.5-7.5-7.5
	s-7.5,3.357-7.5,7.5v7.102C291.282,63.516,294.639,66.873,298.782,66.873z M213.219,66.873c4.142,0,7.5-3.357,7.5-7.5v-7.102
	c0-4.143-3.358-7.5-7.5-7.5s-7.5,3.357-7.5,7.5v7.102C205.719,63.516,209.076,66.873,213.219,66.873z"/>
<g>
</g>
<g>
</g>
<g>
</g>
<g>
</g>
<g>
</g>
<g>
</g>
<g>
</g>
<g>
</g>
<g>
</g>
<g>
</g>
<g>
</g>
<g>
</g>
<g>
</g>
<g>
</g>
<g>
</g>
</svg>
